<?xml version="1.0" standalone="no"?>
<!DOCTYPE svg PUBLIC "-//W3C//DTD SVG 20010904//EN"
 "http://www.w3.org/TR/2001/REC-SVG-20010904/DTD/svg10.dtd">
<svg version="1.0" xmlns="http://www.w3.org/2000/svg"
 width="200.000000pt" height="200.000000pt" viewBox="0 0 200.000000 200.000000"
 preserveAspectRatio="xMidYMid meet">
<metadata>
Created by potrace 1.11, written by Peter Selinger 2001-2013
</metadata>
<g transform="translate(0.000000,200.000000) scale(0.100000,-0.100000)"
fill="#000000" stroke="none">
<path d="M676 1941 c-38 -42 -59 -139 -60 -273 -1 -101 -5 -130 -17 -145 -19
-21 -79 -145 -79 -162 0 -16 -35 -14 -49 3 -19 23 -29 70 -20 94 15 40 -14 21
-35 -24 -38 -75 -16 -192 51 -282 l25 -34 -28 15 c-16 8 -40 27 -53 41 -32 34
-40 33 -36 -7 4 -53 40 -124 82 -164 l38 -37 -37 22 c-34 19 -38 20 -38 4 0
-86 272 -280 457 -327 64 -17 78 -23 65 -31 -14 -9 -15 -16 -5 -48 10 -34 9
-42 -14 -80 -18 -30 -37 -47 -62 -56 -41 -14 -81 -47 -81 -67 0 -18 -35 -16
-54 3 -22 22 -39 7 -33 -30 3 -20 -1 -35 -10 -41 -8 -6 -27 -35 -41 -65 -31
-62 -40 -68 -68 -43 -108 96 -227 361 -267 593 -39 224 1 615 75 738 23 37 43
40 75 10 l23 -21 0 47 c0 48 -13 70 -69 108 -32 23 -22 66 19 81 34 13 37 31
12 70 -42 62 -89 67 -154 16 -21 -17 -44 -29 -50 -28 -42 5 -69 -4 -97 -33
-28 -29 -30 -33 -14 -37 36 -7 45 -23 40 -71 -6 -47 -8 -58 -25 -125 -28 -106
-39 -239 -36 -410 4 -179 12 -241 59 -463 48 -231 213 -520 374 -654 l33 -28
469 0 469 0 5 23 c14 54 -10 103 -67 138 l-38 24 -1 75 c-1 41 -1 89 0 105 2
17 4 61 5 100 2 48 7 70 17 74 22 6 28 22 26 64 -3 44 3 49 82 66 84 18 204
85 259 146 59 64 120 184 128 247 4 43 3 47 -13 42 -11 -4 -14 -3 -7 3 26 20
45 125 24 138 -5 3 -9 20 -8 38 2 48 -21 133 -40 150 -9 8 -26 17 -36 21 -16
5 -17 4 -6 -9 12 -14 17 -92 6 -102 -3 -3 -8 8 -12 23 -4 16 -18 52 -33 79
-22 43 -26 64 -27 155 -1 58 -4 116 -7 130 -17 95 -61 192 -92 204 -9 3 -23 1
-33 -5 -20 -13 -106 -121 -130 -164 -9 -16 -21 -33 -25 -36 -4 -3 -39 1 -77 9
-52 11 -67 18 -60 27 6 7 13 33 16 58 11 78 -45 138 -126 137 -42 -1 -100 -63
-100 -107 0 -28 37 -63 65 -63 13 0 27 10 36 26 12 23 11 27 -4 39 -22 16 -6
29 23 20 42 -13 33 -81 -15 -103 -12 -6 -54 -13 -91 -17 -38 -3 -79 -8 -92
-11 -18 -4 -37 7 -79 46 -78 71 -109 94 -178 128 -84 41 -108 46 -129 23z"/>
</g>
</svg>
